<svg width="75" height="75" viewBox="0 0 75 75" fill="none" xmlns="http://www.w3.org/2000/svg">
<path d="M37.5 75C32.3125 75 27.4375 74.0156 22.875 72.0469C18.3125 70.0781 14.3438 67.4062 10.9688 64.0312C7.59375 60.6562 4.92188 56.6875 2.95312 52.125C0.984375 47.5625 0 42.6875 0 37.5C0 32.3125 0.984375 27.4375 2.95312 22.875C4.92188 18.3125 7.59375 14.3438 10.9688 10.9688C14.3438 7.59375 18.3125 4.92188 22.875 2.95312C27.4375 0.984375 32.3125 0 37.5 0C42.6875 0 47.5625 0.984375 52.125 2.95312C56.6875 4.92188 60.6562 7.59375 64.0312 10.9688C67.4062 14.3438 70.0781 18.3125 72.0469 22.875C74.0156 27.4375 75 32.3125 75 37.5C75 42.6875 74.0156 47.5625 72.0469 52.125C70.0781 56.6875 67.4062 60.6562 64.0312 64.0312C60.6562 67.4062 56.6875 70.0781 52.125 72.0469C47.5625 74.0156 42.6875 75 37.5 75ZM37.5 67.5C45.875 67.5 52.9688 64.5938 58.7812 58.7812C64.5938 52.9688 67.5 45.875 67.5 37.5C67.5 29.125 64.5938 22.0312 58.7812 16.2188C52.9688 10.4062 45.875 7.5 37.5 7.5C29.125 7.5 22.0312 10.4062 16.2188 16.2188C10.4062 22.0312 7.5 29.125 7.5 37.5C7.5 45.875 10.4062 52.9688 16.2188 58.7812C22.0312 64.5938 29.125 67.5 37.5 67.5ZM22.5 52.5V40.9688L43.2188 20.3438C43.7812 19.7812 44.4062 19.375 45.0938 19.125C45.7813 18.875 46.4687 18.75 47.1562 18.75C47.9062 18.75 48.625 18.8906 49.3125 19.1719C50 19.4531 50.625 19.875 51.1875 20.4375L54.6562 23.9062C55.1563 24.4688 55.5469 25.0937 55.8281 25.7812C56.1094 26.4688 56.25 27.1562 56.25 27.8438C56.25 28.5313 56.125 29.2344 55.875 29.9531C55.625 30.6719 55.2188 31.3125 54.6562 31.875L34.0312 52.5H22.5ZM28.125 46.875H31.6875L43.0312 35.4375L41.3438 33.6562L39.5625 31.9688L28.125 43.3125V46.875ZM41.3438 33.6562L39.5625 31.9688L43.0312 35.4375L41.3438 33.6562Z" fill="url(#paint0_linear_259_246)"/>
<defs>
<linearGradient id="paint0_linear_259_246" x1="37.5" y1="0" x2="37.5" y2="75" gradientUnits="userSpaceOnUse">
<stop offset="0.25" stop-color="#A7CCED"/>
<stop offset="0.85" stop-color="#304D6D"/>
</linearGradient>
</defs>
</svg>
